<mxfile host="app.diagrams.net" agent="Mozilla/5.0 (Macintosh; Intel Mac OS X 10_15_7) AppleWebKit/537.36 (KHTML, like Gecko) Chrome/140.0.0.0 Safari/537.36" version="28.2.5">
  <diagram name="Page-1" id="0FveS2tX93X4ZdKStLT3">
    <mxGraphModel dx="740" dy="370" grid="0" gridSize="10" guides="1" tooltips="1" connect="1" arrows="1" fold="1" page="1" pageScale="1" pageWidth="827" pageHeight="1169" math="0" shadow="0">
      <root>
        <mxCell id="0" />
        <mxCell id="1" parent="0" />
        <mxCell id="ZmzHimU4FkvrAkHHGpjB-24" value="" style="rounded=0;whiteSpace=wrap;html=1;" vertex="1" parent="1">
          <mxGeometry x="181" y="194" width="454" height="225" as="geometry" />
        </mxCell>
        <mxCell id="ZmzHimU4FkvrAkHHGpjB-4" style="edgeStyle=orthogonalEdgeStyle;rounded=0;orthogonalLoop=1;jettySize=auto;html=1;exitX=1;exitY=0.5;exitDx=0;exitDy=0;entryX=0;entryY=0.5;entryDx=0;entryDy=0;" edge="1" parent="1" source="ZmzHimU4FkvrAkHHGpjB-2" target="ZmzHimU4FkvrAkHHGpjB-3">
          <mxGeometry relative="1" as="geometry" />
        </mxCell>
        <mxCell id="ZmzHimU4FkvrAkHHGpjB-2" value="inventory.yaml" style="rounded=0;whiteSpace=wrap;html=1;" vertex="1" parent="1">
          <mxGeometry x="191" y="320" width="94" height="40" as="geometry" />
        </mxCell>
        <mxCell id="ZmzHimU4FkvrAkHHGpjB-22" style="edgeStyle=orthogonalEdgeStyle;rounded=0;orthogonalLoop=1;jettySize=auto;html=1;exitX=1;exitY=0.5;exitDx=0;exitDy=0;" edge="1" parent="1" source="ZmzHimU4FkvrAkHHGpjB-3" target="ZmzHimU4FkvrAkHHGpjB-7">
          <mxGeometry relative="1" as="geometry" />
        </mxCell>
        <mxCell id="ZmzHimU4FkvrAkHHGpjB-3" value="paper-sync.app" style="rounded=0;whiteSpace=wrap;html=1;" vertex="1" parent="1">
          <mxGeometry x="323" y="320" width="94" height="40" as="geometry" />
        </mxCell>
        <mxCell id="ZmzHimU4FkvrAkHHGpjB-6" style="edgeStyle=orthogonalEdgeStyle;rounded=0;orthogonalLoop=1;jettySize=auto;html=1;exitX=0.5;exitY=1;exitDx=0;exitDy=0;entryX=0.5;entryY=0;entryDx=0;entryDy=0;shape=link;" edge="1" parent="1" source="ZmzHimU4FkvrAkHHGpjB-5" target="ZmzHimU4FkvrAkHHGpjB-3">
          <mxGeometry relative="1" as="geometry" />
        </mxCell>
        <mxCell id="ZmzHimU4FkvrAkHHGpjB-5" value="database" style="shape=datastore;whiteSpace=wrap;html=1;" vertex="1" parent="1">
          <mxGeometry x="336" y="247" width="68" height="44" as="geometry" />
        </mxCell>
        <mxCell id="ZmzHimU4FkvrAkHHGpjB-7" value="&lt;span&gt;&lt;/span&gt;&lt;span&gt;&lt;/span&gt;&lt;span style=&quot;white-space-collapse: preserve;&quot;&gt;&lt;font style=&quot;font-size: 8px;&quot;&gt;paper_sync_schema_collection_log&lt;/font&gt;&lt;/span&gt;" style="swimlane;fontStyle=0;childLayout=stackLayout;horizontal=1;startSize=30;horizontalStack=0;resizeParent=1;resizeParentMax=0;resizeLast=0;collapsible=1;marginBottom=0;whiteSpace=wrap;html=1;" vertex="1" parent="1">
          <mxGeometry x="466" y="276.5" width="140" height="60" as="geometry" />
        </mxCell>
        <mxCell id="ZmzHimU4FkvrAkHHGpjB-8" value="&lt;span&gt;&lt;/span&gt;&lt;span&gt;&lt;/span&gt;&lt;span style=&quot;white-space-collapse: preserve;&quot;&gt;&lt;font style=&quot;font-size: 8px;&quot;&gt;id&lt;/font&gt;&lt;/span&gt;" style="text;strokeColor=none;fillColor=none;align=left;verticalAlign=middle;spacingLeft=4;spacingRight=4;overflow=hidden;points=[[0,0.5],[1,0.5]];portConstraint=eastwest;rotatable=0;whiteSpace=wrap;html=1;" vertex="1" parent="ZmzHimU4FkvrAkHHGpjB-7">
          <mxGeometry y="30" width="140" height="30" as="geometry" />
        </mxCell>
        <mxCell id="ZmzHimU4FkvrAkHHGpjB-11" value="&lt;span&gt;&lt;/span&gt;&lt;span&gt;&lt;/span&gt;&lt;span&gt;&lt;/span&gt;&lt;span style=&quot;white-space-collapse: preserve;&quot;&gt;&lt;font style=&quot;font-size: 9px;&quot;&gt;paper_sync_schema_snapshot&lt;/font&gt;&lt;/span&gt;" style="swimlane;fontStyle=0;childLayout=stackLayout;horizontal=1;startSize=30;horizontalStack=0;resizeParent=1;resizeParentMax=0;resizeLast=0;collapsible=1;marginBottom=0;whiteSpace=wrap;html=1;" vertex="1" parent="1">
          <mxGeometry x="466" y="343.5" width="140" height="60" as="geometry" />
        </mxCell>
        <mxCell id="ZmzHimU4FkvrAkHHGpjB-12" value="&lt;span&gt;&lt;/span&gt;&lt;span&gt;&lt;/span&gt;&lt;span&gt;&lt;/span&gt;&lt;span style=&quot;white-space-collapse: preserve;&quot;&gt;&lt;font style=&quot;font-size: 8px;&quot;&gt;collection_id&lt;/font&gt;&lt;/span&gt;" style="text;strokeColor=none;fillColor=none;align=left;verticalAlign=middle;spacingLeft=4;spacingRight=4;overflow=hidden;points=[[0,0.5],[1,0.5]];portConstraint=eastwest;rotatable=0;whiteSpace=wrap;html=1;" vertex="1" parent="ZmzHimU4FkvrAkHHGpjB-11">
          <mxGeometry y="30" width="140" height="30" as="geometry" />
        </mxCell>
        <mxCell id="ZmzHimU4FkvrAkHHGpjB-23" style="edgeStyle=orthogonalEdgeStyle;rounded=0;orthogonalLoop=1;jettySize=auto;html=1;exitX=1;exitY=0.5;exitDx=0;exitDy=0;entryX=1;entryY=0.5;entryDx=0;entryDy=0;" edge="1" parent="1" source="ZmzHimU4FkvrAkHHGpjB-8" target="ZmzHimU4FkvrAkHHGpjB-12">
          <mxGeometry relative="1" as="geometry" />
        </mxCell>
        <mxCell id="ZmzHimU4FkvrAkHHGpjB-26" value="Cron Architecture" style="text;html=1;align=center;verticalAlign=middle;whiteSpace=wrap;rounded=0;" vertex="1" parent="1">
          <mxGeometry x="186" y="200" width="60" height="30" as="geometry" />
        </mxCell>
      </root>
    </mxGraphModel>
  </diagram>
</mxfile>
